<?xml version="1.0" standalone="no"?><!DOCTYPE svg PUBLIC "-//W3C//DTD SVG 1.1//EN" "http://www.w3.org/Graphics/SVG/1.1/DTD/svg11.dtd"><svg class="icon" width="200px" height="200.00px" viewBox="0 0 1024 1024" version="1.1" xmlns="http://www.w3.org/2000/svg"><path fill="#e6e6e6" d="M256 832m-128 0a2 2 0 1 0 256 0 2 2 0 1 0-256 0ZM768 832m-128 0a2 2 0 1 0 256 0 2 2 0 1 0-256 0ZM954.944 384 902.4 384c-30.656-181.376-187.008-320-377.088-320S178.88 202.624 148.224 384L69.056 384C25.408 459.392 0 546.624 0 640c0 44.288 0 128 0 128l75.776 0C102.208 693.568 172.544 640 256 640s153.792 53.568 180.224 128l151.488 0c26.432-74.432 96.768-128 180.224-128s153.792 53.568 180.224 128L1024 768c0 0 0-83.712 0-128C1024 546.624 998.592 459.392 954.944 384zM206.208 384c26.496-134.912 134.144-239.808 271.104-259.648L477.312 384 206.208 384zM549.312 384 549.312 122.688 495.488 122.688c9.536-0.832 18.752-2.688 28.544-2.688 158.656 0 288.32 113.984 317.76 264L549.312 384z" /></svg>