<?xml version="1.0" standalone="no"?><!DOCTYPE svg PUBLIC "-//W3C//DTD SVG 1.1//EN" "http://www.w3.org/Graphics/SVG/1.1/DTD/svg11.dtd"><svg class="icon" width="200px" height="200.00px" viewBox="0 0 1024 1024" version="1.1" xmlns="http://www.w3.org/2000/svg"><path fill="#e6e6e6" d="M620.544 1012.224h187.392c70.144-0.512 84.992-45.056 84.992-109.568v-316.928h44.544c44.544 0 59.904-27.136 64-36.864 6.656-13.824 11.264-47.104-27.136-84.992l-374.784-370.688C576.512 70.144 512 8.704 512 8.704s-64.512 61.44-87.552 84.48L49.664 463.872c-38.912 38.4-33.792 71.168-27.136 85.504 4.608 9.728 19.968 36.864 64 36.864h44.544v316.928c0 63.488 25.088 109.568 84.992 109.568h187.392l217.088-0.512zM646.144 846.336h-122.88v-154.112h123.392c11.776 0 21.504-9.728 21.504-21.504s-9.728-21.504-21.504-21.504h-123.392V573.44h2.048c35.84-4.096 67.072-22.016 89.088-50.176s32.256-62.976 28.16-98.304c-4.096-35.84-22.016-67.072-50.176-89.088-23.552-19.456-52.736-29.696-81.92-29.696-5.632 0-10.24 0-15.872 0.512-73.216 8.192-125.44 74.752-117.248 148.48 6.144 54.784 45.056 99.328 98.816 114.176l2.56 0.512v1.536h-0.512v318.976h167.936c12.288 0 22.016-9.728 22.016-22.016s-9.728-22.016-22.016-22.016z m-224.256-419.84c6.144-37.888 36.352-68.608 74.752-74.752 60.416-9.728 112.64 42.496 102.912 102.912-6.144 38.4-36.864 68.608-74.752 74.752-60.416 9.728-112.64-42.496-102.912-102.912z" /></svg>