<?xml version="1.0" standalone="no"?><!DOCTYPE svg PUBLIC "-//W3C//DTD SVG 1.1//EN" "http://www.w3.org/Graphics/SVG/1.1/DTD/svg11.dtd"><svg t="1614319832390" class="icon" viewBox="0 0 1024 1024" version="1.1" xmlns="http://www.w3.org/2000/svg" p-id="5302" xmlns:xlink="http://www.w3.org/1999/xlink" width="200" height="200"><defs><style type="text/css"></style></defs><path d="M839.253333 426.666667H725.333333V213.333333a85.333333 85.333333 0 0 0-85.333333-85.333333H213.333333a85.333333 85.333333 0 0 0-85.333333 85.333333v597.333334a85.333333 85.333333 0 0 0 85.333333 85.333333h611.413334A71.253333 71.253333 0 0 0 896 824.746667v-341.333334A56.746667 56.746667 0 0 0 839.253333 426.666667z m-250.453333 315.733333H256v-51.2h332.8v51.2z m0-128H256v-51.2h332.8v51.2z m0-251.733333a21.632 21.632 0 0 1-12.8 19.712 20.565333 20.565333 0 0 1-8.021333 1.621333H276.821333A21.077333 21.077333 0 0 1 256 362.666667V277.333333c0-11.776 9.301333-21.333333 20.778667-21.333333h291.2a20.48 20.48 0 0 1 14.72 6.229333 21.632 21.632 0 0 1 6.101333 15.104v85.248z m204.8 417.92c0 21.333333-15.146667 38.613333-33.792 38.613333h-9.216a31.786667 31.786667 0 0 1-23.893333-11.306667 41.6 41.6 0 0 1-9.898667-27.306666V512h59.904c9.301333 0 16.896 8.661333 16.896 19.328v249.258667z" p-id="5303"></path></svg>