<?xml version="1.0" standalone="no"?><!DOCTYPE svg PUBLIC "-//W3C//DTD SVG 1.1//EN" "http://www.w3.org/Graphics/SVG/1.1/DTD/svg11.dtd"><svg class="icon" width="200px" height="200.00px" viewBox="0 0 1024 1024" version="1.1" xmlns="http://www.w3.org/2000/svg"><path fill="#e6e6e6" d="M527.36 614.4c-5.12-5.12-10.24-5.12-15.36-5.12s-10.24 0-15.36 5.12c-10.24 5.12-15.36 15.36-15.36 25.6s5.12 20.48 15.36 25.6c5.12 5.12 10.24 5.12 15.36 5.12s10.24 0 15.36-5.12c10.24-5.12 15.36-15.36 15.36-25.6s-5.12-20.48-15.36-25.6zM512 0C229.376 0 0 229.376 0 512s229.376 512 512 512 512-229.376 512-512S794.624 0 512 0z m240.64 696.32c-10.24 15.36-20.48 20.48-35.84 20.48H307.2c-15.36 0-25.6-10.24-35.84-20.48-5.12-15.36-5.12-30.72 0-40.96l204.8-353.28c10.24-10.24 20.48-20.48 35.84-20.48s30.72 10.24 35.84 20.48l204.8 353.28c5.12 15.36 5.12 30.72 0 40.96zM512 588.8c15.36 0 25.6-10.24 25.6-25.6V419.84c0-15.36-10.24-25.6-25.6-25.6s-25.6 10.24-25.6 25.6V563.2c0 15.36 10.24 25.6 25.6 25.6z" /></svg>