<?xml version="1.0" standalone="no"?><!DOCTYPE svg PUBLIC "-//W3C//DTD SVG 1.1//EN" "http://www.w3.org/Graphics/SVG/1.1/DTD/svg11.dtd"><svg t="1614319914316" class="icon" viewBox="0 0 1024 1024" version="1.1" xmlns="http://www.w3.org/2000/svg" p-id="6077" xmlns:xlink="http://www.w3.org/1999/xlink" width="200" height="200"><defs><style type="text/css"></style></defs><path d="M655.231464 820.644311v71.04576c0 6.97873 4.690622 9.381244 10.410892 5.49146l251.234282-160.396386c5.720271-4.004189 5.720271-10.182082 0-14.186271L665.527951 562.202488c-5.834676-3.889784-10.410892-1.430068-10.410893 5.49146v71.160166H107.687168v-241.68143l-26.084433 18.19046A51.625442 51.625442 0 0 1 0.832515 364.10952a51.353729 51.353729 0 0 1 21.451014-33.40638L481.220834 9.395544A51.982958 51.982958 0 0 1 511.99589 0.071503a51.396631 51.396631 0 0 1 30.66065 9.381244l459.05171 321.364799a51.711246 51.711246 0 1 1-59.376408 84.660003l-21.679826-18.19046v572.370269c-4.290203 14.415082-10.010473 28.258136-20.192555 38.440218a54.34257 54.34257 0 0 1-38.49742 15.902352H162.029738a54.34257 54.34257 0 0 1-54.34257-54.34257v-149.013047z m-547.544296 0" p-id="6078"></path><path d="M418.011845 933.419445H107.672868V511.964213h308.908909l1.430068 421.455232z" p-id="6079"></path></svg>