<?xml version="1.0" standalone="no"?><!DOCTYPE svg PUBLIC "-//W3C//DTD SVG 1.1//EN" "http://www.w3.org/Graphics/SVG/1.1/DTD/svg11.dtd"><svg t="1614320244835" class="icon" viewBox="0 0 1024 1024" version="1.1" xmlns="http://www.w3.org/2000/svg" p-id="7264" xmlns:xlink="http://www.w3.org/1999/xlink" width="200" height="200"><defs><style type="text/css"></style></defs><path d="M224 832c-6.4 0-12.8 0-19.2-6.4-12.8-12.8-19.2-32-6.4-44.8l128-192C332.8 582.4 345.6 576 352 576c0 0 0 0 0 0l166.4 0 57.6-230.4c0-6.4 6.4-12.8 12.8-19.2l192-128C800 185.6 819.2 192 832 204.8c12.8 12.8 6.4 32-6.4 44.8L640 371.2 576 614.4C576 627.2 563.2 640 544 640c0 0 0 0 0 0l-172.8 0-121.6 179.2C243.2 825.6 236.8 832 224 832z" p-id="7265"></path><path d="M870.4 960 96 960C76.8 960 64 947.2 64 928l0-768C64 140.8 76.8 128 96 128S128 140.8 128 160L128 896l742.4 0c19.2 0 32 12.8 32 32S883.2 960 870.4 960z" p-id="7266"></path></svg>