<?xml version="1.0" standalone="no"?><!DOCTYPE svg PUBLIC "-//W3C//DTD SVG 1.1//EN" "http://www.w3.org/Graphics/SVG/1.1/DTD/svg11.dtd"><svg t="1614320221364" class="icon" viewBox="0 0 1024 1024" version="1.1" xmlns="http://www.w3.org/2000/svg" p-id="7121" xmlns:xlink="http://www.w3.org/1999/xlink" width="200" height="200"><defs><style type="text/css"></style></defs><path d="M832 170.666667A64 64 0 0 0 768 234.666667V768a64 64 0 1 0 128 0V234.666667A64 64 0 0 0 832 170.666667zM512 0a64 64 0 0 0-64 64V768a64 64 0 1 0 128 0V64A64 64 0 0 0 512 0zM192 298.666667A64 64 0 0 0 128 362.666667V768a64 64 0 1 0 128 0V362.666667A64 64 0 0 0 192 298.666667zM0 960A64 64 0 0 0 64 1024h896a64 64 0 0 0 0-128h-896A64 64 0 0 0 0 960z" p-id="7122"></path></svg>