<?xml version="1.0" standalone="no"?><!DOCTYPE svg PUBLIC "-//W3C//DTD SVG 1.1//EN" "http://www.w3.org/Graphics/SVG/1.1/DTD/svg11.dtd"><svg class="icon" width="200px" height="200.00px" viewBox="0 0 1024 1024" version="1.1" xmlns="http://www.w3.org/2000/svg"><path fill="#e6e6e6" d="M569.14 85.25c-31.87-24.87-81.89-24.83-113.74 0L85.11 373.56c-12.66 9.85-14.82 27.98-4.82 40.42 9.99 12.47 27.96 14.59 40.6 4.76l18.37-10.98v470.79c0 49.42 46.02 81.17 92.52 81.17h584.35c45.93 0 69.91-29.53 69.91-81.17V407.76l16.7 10.98c5.39 4.17 11.98 6.19 18.33 6.19 8.62 0 17.27-3.73 23.02-10.94 10.01-12.45 8.02-30.57-4.66-40.42L569.14 85.25z m97.22 700.37c0 42.4-68.73 76.77-153.52 76.77-84.8 0-153.54-34.37-153.56-76.77v-43.18c0 42.4 68.74 68.77 153.56 68.77 84.81 0 153.54-26.38 153.52-68.77v43.18z m0-76.77c0 42.4-68.72 76.77-153.52 76.77s-153.56-34.37-153.56-76.77v-43.18c0 42.4 68.74 68.77 153.56 68.77 84.81 0 153.54-26.37 153.52-68.77v43.18z m0-76.77c0 42.39-68.72 76.77-153.52 76.77s-153.56-34.37-153.56-76.77V588.9c0 42.4 68.74 68.77 153.56 68.77 84.81 0 153.54-26.37 153.52-68.77v43.18z m0.02-76.77c0 42.4-68.73 76.77-153.54 76.77s-153.56-34.37-153.56-76.77v-25.59c0-42.4 68.74-76.77 153.56-76.77 84.81 0 153.54 34.37 153.54 76.77v25.59z" /></svg>